#!OML:ASF F:\VICON\USERDATA\INSTALL\rory3\rory3.ASF
:FULLY-SPECIFIED
:DEGREES
1869
root 11.7121 18.0235 -2.233 722.012 -46.0076 -357.163
lowerback 13.5862 -5.24903 -2.85719
upperback 0.259624 -7.09534 5.63383
thorax -6.23306 -3.35472 8.95434
lowerneck 5.44966 -19.6491 -14.1903
upperneck 32.2864 -36.2856 15.1911
head 16.7178 -16.8322 2.55468
rclavicle 7.23576e-014 -9.54166e-015
rhumerus -32.0363 -9.99782 -74.2141
rradius 40.7988
rwrist 2.87701
rhand -11.622 9.01733
rfingers 7.12502
rthumb 14.4212 -20.4616
lclavicle 7.23576e-014 -9.54166e-015
lhumerus -38.5369 11.5253 79.1206
lradius 36.4369
lwrist -4.09159
lhand -20.3596 25.7071
lfingers 7.12502
lthumb 5.9926 55.6024
rfemur -11.1344 7.85859 23.0397
rtibia 28.8517
rfoot -16.1381 -0.513237
rtoes 5.00635
lfemur -21.0456 3.62132 -19.7091
ltibia 44.4549
lfoot -11.5539 0.985853
ltoes -18.1243
1870
root 11.7663 18.0298 -2.31096 722.128 -45.7477 -357.244
lowerback 13.5212 -5.25684 -2.90656
upperback 0.105034 -7.10383 5.74319
thorax -6.34152 -3.34747 9.1099
lowerneck 5.66912 -19.5025 -14.5469
upperneck 32.3681 -36.0941 15.1726
head 16.753 -16.8051 2.65439
rclavicle 3.53837e-014 -3.33958e-014
rhumerus -32.531 -10.0217 -73.7038
rradius 40.8374
rwrist 2.64458
rhand -11.8813 8.93603
rfingers 7.12502
rthumb 14.1714 -20.5606
lclavicle 3.53837e-014 -3.33958e-014
lhumerus -38.8193 11.5461 79.372
lradius 36.6488
lwrist -3.96141
lhand -20.2391 25.489
lfingers 7.12502
lthumb 6.10901 55.3809
rfemur -11.5273 7.79609 23.1286
rtibia 28.8759
rfoot -15.8652 -0.668691
rtoes 5.47624
lfemur -20.3924 3.91745 -19.7432
ltibia 45.0998
lfoot -11.7458 1.29592
ltoes -18.7602
1871
root 11.8186 18.0362 -2.38534 722.491 -45.5408 -357.624
lowerback 13.2922 -5.34263 -2.74116
upperback 0.098935 -7.18888 5.83461
thorax -6.21445 -3.40121 9.0986
lowerneck 5.53057 -19.3469 -14.6317
upperneck 32.597 -35.8747 15.0697
head 16.8429 -16.7107 2.66017
rclavicle 1.22849e-013 1.59028e-015
rhumerus -32.7242 -10.0598 -73.4825
rradius 40.7763
rwrist 2.52108
rhand -11.787 8.77331
rfingers 7.12502
rthumb 14.2622 -20.7169
lclavicle 1.22849e-013 1.59028e-015
lhumerus -38.8594 11.7768 79.3668
lradius 36.8506
lwrist -3.96412
lhand -19.938 25.4498
lfingers 7.12502
lthumb 6.39971 55.3331
rfemur -11.93 7.83568 23.4552
rtibia 28.9175
rfoot -15.6231 -0.92829
rtoes 6.42267
lfemur -19.6195 4.44574 -19.6018
ltibia 45.5692
lfoot -11.9707 1.68952
ltoes -21.0937
1872
root 11.8704 18.0433 -2.46071 722.675 -45.3247 -357.848
lowerback 13.01 -5.37683 -2.62199
upperback 0.230916 -7.22257 5.81021
thorax -5.92807 -3.43973 8.95747
lowerneck 5.1927 -19.2762 -14.4466
upperneck 32.8034 -35.7601 14.9913
head 16.9303 -16.6129 2.5996
rclavicle 1.70955e-014 2.22639e-014
rhumerus -32.7089 -10.5476 -73.2997
rradius 40.5621
rwrist 2.67958
rhand -11.4994 8.72375
rfingers 7.12502
rthumb 14.5394 -20.7467
lclavicle 1.70955e-014 2.22639e-014
lhumerus -38.6081 11.6181 79.4213
lradius 37.0241
lwrist -3.83042
lhand -19.8526 25.8034
lfingers 7.12502
lthumb 6.48209 55.6842
rfemur -12.2939 7.75055 23.6729
rtibia 29.0068
rfoot -15.385 -1.00155
rtoes 7.82899
lfemur -18.7467 4.73146 -19.444
ltibia 45.7826
lfoot -12.0656 1.50475
ltoes -18.3622
1873
root 11.9217 18.0488 -2.53258 722.365 -45.0554 -357.458
lowerback 12.8169 -5.36103 -2.90905
upperback 0.326292 -7.25239 5.68256
thorax -5.69493 -3.46097 8.94823
lowerneck 4.88977 -19.2746 -14.2371
upperneck 32.9579 -35.6715 14.8015
head 16.9455 -16.5344 2.49574
rclavicle 2.10712e-014 4.77083e-015
rhumerus -32.7937 -11.1115 -73.006
rradius 40.3324
rwrist 2.89083
rhand -12.3002 8.76057
rfingers 7.12502
rthumb 13.7677 -20.7639
lclavicle 2.10712e-014 4.77083e-015
lhumerus -38.368 11.3813 79.5962
lradius 37.1266
lwrist -3.90536
lhand -20.1382 25.7736
lfingers 7.12502
lthumb 6.20642 55.6627
rfemur -12.6249 7.49702 23.3862
rtibia 29.1556
rfoot -15.1954 -0.988184
rtoes 7.60517
lfemur -17.6802 5.0121 -19.8178
ltibia 45.786
lfoot -11.8645 1.65433
ltoes -17.2338
1874
root 11.975 18.0491 -2.60343 722.188 -44.7163 -357.124
lowerback 12.6564 -5.40036 -3.16209
upperback 0.263268 -7.34246 5.60483
thorax -5.63672 -3.50008 9.00231
lowerneck 5.03301 -19.1496 -14.3667
upperneck 32.9477 -35.4697 14.822
head 16.9019 -16.4796 2.58731
rclavicle -5.04913e-014 -2.38542e-014
rhumerus -33.0962 -11.5033 -72.6969
rradius 40.1807
rwrist 2.97519
rhand -13.9154 8.75481
rfingers 7.12502
rthumb 12.2107 -20.8688
lclavicle -5.04913e-014 -2.38542e-014
lhumerus -38.3869 11.1057 79.7499
lradius 37.2756
lwrist -4.02545
lhand -20.2019 25.8228
lfingers 7.12502
lthumb 6.14487 55.7137
rfemur -13.1125 7.27251 23.1145
rtibia 29.3697
rfoot -14.9791 -1.06954
rtoes 6.70251
lfemur -16.6508 5.25422 -20.1974
ltibia 45.6009
lfoot -11.3631 2.07921
ltoes -17.5354
1875
root 12.0282 18.0516 -2.67325 722.154 -44.4563 -357.058
lowerback 12.515 -5.45871 -3.22554
upperback 0.234269 -7.43042 5.5417
thorax -5.57467 -3.54439 8.96411
lowerneck 5.34075 -18.9556 -14.6412
upperneck 32.8637 -35.2607 15.0614
head 16.8876 -16.4414 2.79451
rclavicle 5.64548e-014 3.18055e-014
rhumerus -33.3613 -11.8447 -72.4555
rradius 40.0243
rwrist 2.98005
rhand -14.5822 8.78021
rfingers 7.12502
rthumb 11.5677 -20.8806
lclavicle 5.64548e-014 3.18055e-014
lhumerus -38.3552 10.9266 79.7557
lradius 37.3386
lwrist -4.03178
lhand -20.2695 25.7227
lfingers 7.12502
lthumb 6.07961 55.6155
rfemur -13.564 7.20686 23.0536
rtibia 29.6233
rfoot -14.7486 -1.20998
rtoes 6.77126
lfemur -15.5602 5.55478 -20.3834
ltibia 45.3629
lfoot -11.1346 2.55242
ltoes -17.8121
1876
root 12.0822 18.0534 -2.7414 721.948 -44.2704 -356.977
lowerback 12.515 -5.46158 -3.30677
upperback 0.314098 -7.45129 5.45797
thorax -5.48685 -3.55927 8.91364
lowerneck 5.23945 -18.8792 -14.594
upperneck 32.9962 -35.1205 14.9679
head 16.9083 -16.3734 2.77903
rclavicle 7.55382e-015 -6.36111e-015
rhumerus -33.5127 -12.1171 -72.2094
rradius 39.8073
rwrist 2.98074
rhand -13.6307 8.89589
rfingers 7.12502
rthumb 12.4852 -20.7112
lclavicle 7.55382e-015 -6.36111e-015
lhumerus -38.1962 10.8187 79.7994
lradius 37.3898
lwrist -4.24267
lhand -20.3154 25.5521
lfingers 7.12502
lthumb 6.03534 55.4462
rfemur -13.8202 7.19134 22.9941
rtibia 29.8261
rfoot -14.5433 -1.37005
rtoes 7.03602
lfemur -14.3091 5.98557 -20.563
ltibia 45.0853
lfoot -11.0632 2.94686
ltoes -17.8509
1877
root 12.1397 18.052 -2.82804 722.04 -43.7827 -356.931
lowerback 12.418 -5.52367 -3.45271
upperback 0.287599 -7.55255 5.47773
thorax -5.42245 -3.60842 9.01959
lowerneck 4.91675 -18.8502 -14.4525
upperneck 33.2401 -34.9957 14.7117
head 16.9652 -16.2855 2.66092
rclavicle 1.31993e-013 7.95139e-015
rhumerus -33.6399 -12.3165 -71.9345
rradius 39.6344
rwrist 3.04597
rhand -12.11 8.97436
rfingers 7.12502
rthumb 13.951 -20.5376
lclavicle 1.31993e-013 7.95139e-015
lhumerus -37.9811 10.7277 79.9476
lradius 37.4485
lwrist -4.53547
lhand -20.4766 25.5255
lfingers 7.12502
lthumb 5.87973 55.4239
rfemur -14.3999 7.03822 22.9816
rtibia 29.9684
rfoot -14.1757 -1.66077
rtoes 6.91831
lfemur -13.4871 6.34757 -20.6499
ltibia 44.7894
lfoot -10.7501 3.11107
ltoes -18.4269
1878
root 12.1945 18.0565 -2.90737 721.927 -43.3518 -356.731
lowerback 12.3476 -5.57544 -3.66452
upperback 0.29528 -7.65361 5.41
thorax -5.3395 -3.65773 9.06723
lowerneck 4.68792 -18.7801 -14.3192
upperneck 33.4338 -34.8402 14.5467
head 17.0008 -16.1932 2.59813
rclavicle -1.43125e-014 1.27222e-014
rhumerus -33.8016 -12.6161 -71.7304
rradius 39.438
rwrist 3.2085
rhand -11.4241 9.09752
rfingers 7.12502
rthumb 14.6119 -20.3677
lclavicle -1.43125e-014 1.27222e-014
lhumerus -37.7447 10.6979 79.9589
lradius 37.4814
lwrist -4.56668
lhand -20.3999 25.5966
lfingers 7.12502
lthumb 5.95377 55.4929
rfemur -14.8247 6.80271 22.8358
rtibia 30.0714
rfoot -13.9015 -1.83872
rtoes 6.84454
lfemur -12.4895 6.56612 -20.8706
ltibia 44.3999
lfoot -10.5467 3.52416
ltoes -18.1119
1879
root 12.2486 18.0639 -2.99188 721.702 -42.7987 -356.368
lowerback 12.3832 -5.63572 -4.05285
upperback 0.257544 -7.79272 5.30186
thorax -5.33888 -3.71577 9.1939
lowerneck 4.65606 -18.6856 -14.2384
upperneck 33.4979 -34.6989 14.5569
head 16.9963 -16.1245 2.62838
rclavicle 4.8901e-014 -6.36111e-015
rhumerus -34.0694 -12.808 -71.522
rradius 39.2927
rwrist 3.41295
rhand -11.3741 9.12586
rfingers 7.12502
rthumb 14.6601 -20.3359
lclavicle 4.8901e-014 -6.36111e-015
lhumerus -37.5342 10.6823 79.9019
lradius 37.5308
lwrist -4.60938
lhand -20.0976 25.5736
lfingers 7.12502
lthumb 6.2456 55.4616
rfemur -15.2435 6.53737 22.5728
rtibia 30.1835
rfoot -13.6648 -2.10417
rtoes 7.1534
lfemur -11.515 6.64222 -21.1959
ltibia 43.9414
lfoot -10.2656 3.82664
ltoes -15.3607
